<svg width="428" height="100" viewBox="0 0 428 100" fill="none" xmlns="http://www.w3.org/2000/svg">
<mask id="path-1-outside-1_216_423" maskUnits="userSpaceOnUse" x="0" y="0" width="225" height="100" fill="black">
<rect fill="white" width="225" height="100"/>
<path d="M59.0781 85.375H13V18.1562H59.0781V31.6094H26.4531V45.0625H48.5312V58.5156H26.4531V71.9219H59.0781V85.375Z"/>
<path d="M82.2344 21.5312C82.2344 22.7188 82 23.8281 81.5312 24.8594C81.0938 25.8906 80.4844 26.7969 79.7031 27.5781C78.9219 28.3281 78 28.9375 76.9375 29.4062C75.9062 29.8438 74.7969 30.0625 73.6094 30.0625C72.4219 30.0625 71.2969 29.8438 70.2344 29.4062C69.2031 28.9375 68.2969 28.3281 67.5156 27.5781C66.7656 26.7969 66.1562 25.8906 65.6875 24.8594C65.25 23.8281 65.0312 22.7188 65.0312 21.5312C65.0312 20.375 65.25 19.2812 65.6875 18.25C66.1562 17.1875 66.7656 16.2812 67.5156 15.5312C68.2969 14.75 69.2031 14.1406 70.2344 13.7031C71.2969 13.2344 72.4219 13 73.6094 13C74.7969 13 75.9062 13.2344 76.9375 13.7031C78 14.1406 78.9219 14.75 79.7031 15.5312C80.4844 16.2812 81.0938 17.1875 81.5312 18.25C82 19.2812 82.2344 20.375 82.2344 21.5312ZM80.0312 85.375H67.1406V35.1719H80.0312V85.375Z"/>
<path d="M153.203 67.2344C153.203 69.8594 152.703 72.3438 151.703 74.6875C150.703 77 149.328 79.0156 147.578 80.7344C145.859 82.4531 143.828 83.8125 141.484 84.8125C139.172 85.8125 136.688 86.3125 134.031 86.3125C131.656 86.3125 129.375 85.9062 127.188 85.0938C125 84.25 123.016 83.0312 121.234 81.4375C119.484 83.0312 117.516 84.25 115.328 85.0938C113.172 85.9062 110.891 86.3125 108.484 86.3125C105.828 86.3125 103.344 85.8125 101.031 84.8125C98.7188 83.8125 96.6875 82.4531 94.9375 80.7344C93.2188 79.0156 91.8594 77 90.8594 74.6875C89.8594 72.3438 89.3594 69.8594 89.3594 67.2344V35.2656H102.156V67.2344C102.156 68.1094 102.312 68.9375 102.625 69.7188C102.969 70.4688 103.422 71.1406 103.984 71.7344C104.578 72.2969 105.25 72.75 106 73.0938C106.781 73.4062 107.609 73.5625 108.484 73.5625C109.359 73.5625 110.188 73.4062 110.969 73.0938C111.75 72.75 112.438 72.2969 113.031 71.7344C113.625 71.1406 114.078 70.4688 114.391 69.7188C114.734 68.9375 114.906 68.1094 114.906 67.2344V35.2656H127.656V67.2344C127.656 68.1094 127.828 68.9375 128.172 69.7188C128.516 70.4688 128.969 71.1406 129.531 71.7344C130.125 72.2969 130.797 72.75 131.547 73.0938C132.328 73.4062 133.156 73.5625 134.031 73.5625C134.906 73.5625 135.734 73.4062 136.516 73.0938C137.297 72.75 137.969 72.2969 138.531 71.7344C139.125 71.1406 139.594 70.4688 139.938 69.7188C140.281 68.9375 140.453 68.1094 140.453 67.2344V35.2656H153.203V67.2344Z"/>
<path d="M211.094 85.375H208L203.031 78.4844C201.812 79.5781 200.516 80.6094 199.141 81.5781C197.797 82.5156 196.375 83.3438 194.875 84.0625C193.375 84.75 191.828 85.2969 190.234 85.7031C188.672 86.1094 187.078 86.3125 185.453 86.3125C181.922 86.3125 178.594 85.7188 175.469 84.5312C172.375 83.3438 169.656 81.625 167.312 79.375C165 77.0938 163.172 74.3125 161.828 71.0312C160.484 67.75 159.812 64.0156 159.812 59.8281C159.812 55.9219 160.484 52.3438 161.828 49.0938C163.172 45.8125 165 43 167.312 40.6562C169.656 38.3125 172.375 36.5 175.469 35.2188C178.594 33.9062 181.922 33.25 185.453 33.25C187.078 33.25 188.688 33.4531 190.281 33.8594C191.875 34.2656 193.422 34.8281 194.922 35.5469C196.422 36.2656 197.844 37.1094 199.188 38.0781C200.562 39.0469 201.844 40.0938 203.031 41.2188L208 35.2656H211.094V85.375ZM198.203 59.8281C198.203 58.0781 197.859 56.3906 197.172 54.7656C196.516 53.1094 195.609 51.6562 194.453 50.4062C193.297 49.125 191.938 48.1094 190.375 47.3594C188.844 46.5781 187.203 46.1875 185.453 46.1875C183.703 46.1875 182.047 46.4844 180.484 47.0781C178.953 47.6719 177.609 48.5469 176.453 49.7031C175.328 50.8594 174.438 52.2969 173.781 54.0156C173.125 55.7031 172.797 57.6406 172.797 59.8281C172.797 62.0156 173.125 63.9688 173.781 65.6875C174.438 67.375 175.328 68.7969 176.453 69.9531C177.609 71.1094 178.953 71.9844 180.484 72.5781C182.047 73.1719 183.703 73.4688 185.453 73.4688C187.203 73.4688 188.844 73.0938 190.375 72.3438C191.938 71.5625 193.297 70.5469 194.453 69.2969C195.609 68.0156 196.516 66.5625 197.172 64.9375C197.859 63.2812 198.203 61.5781 198.203 59.8281Z"/>
</mask>
<path d="M59.0781 85.375H13V18.1562H59.0781V31.6094H26.4531V45.0625H48.5312V58.5156H26.4531V71.9219H59.0781V85.375Z" fill="url(#paint0_linear_216_423)"/>
<path d="M82.2344 21.5312C82.2344 22.7188 82 23.8281 81.5312 24.8594C81.0938 25.8906 80.4844 26.7969 79.7031 27.5781C78.9219 28.3281 78 28.9375 76.9375 29.4062C75.9062 29.8438 74.7969 30.0625 73.6094 30.0625C72.4219 30.0625 71.2969 29.8438 70.2344 29.4062C69.2031 28.9375 68.2969 28.3281 67.5156 27.5781C66.7656 26.7969 66.1562 25.8906 65.6875 24.8594C65.25 23.8281 65.0312 22.7188 65.0312 21.5312C65.0312 20.375 65.25 19.2812 65.6875 18.25C66.1562 17.1875 66.7656 16.2812 67.5156 15.5312C68.2969 14.75 69.2031 14.1406 70.2344 13.7031C71.2969 13.2344 72.4219 13 73.6094 13C74.7969 13 75.9062 13.2344 76.9375 13.7031C78 14.1406 78.9219 14.75 79.7031 15.5312C80.4844 16.2812 81.0938 17.1875 81.5312 18.25C82 19.2812 82.2344 20.375 82.2344 21.5312ZM80.0312 85.375H67.1406V35.1719H80.0312V85.375Z" fill="url(#paint1_linear_216_423)"/>
<path d="M153.203 67.2344C153.203 69.8594 152.703 72.3438 151.703 74.6875C150.703 77 149.328 79.0156 147.578 80.7344C145.859 82.4531 143.828 83.8125 141.484 84.8125C139.172 85.8125 136.688 86.3125 134.031 86.3125C131.656 86.3125 129.375 85.9062 127.188 85.0938C125 84.25 123.016 83.0312 121.234 81.4375C119.484 83.0312 117.516 84.25 115.328 85.0938C113.172 85.9062 110.891 86.3125 108.484 86.3125C105.828 86.3125 103.344 85.8125 101.031 84.8125C98.7188 83.8125 96.6875 82.4531 94.9375 80.7344C93.2188 79.0156 91.8594 77 90.8594 74.6875C89.8594 72.3438 89.3594 69.8594 89.3594 67.2344V35.2656H102.156V67.2344C102.156 68.1094 102.312 68.9375 102.625 69.7188C102.969 70.4688 103.422 71.1406 103.984 71.7344C104.578 72.2969 105.25 72.75 106 73.0938C106.781 73.4062 107.609 73.5625 108.484 73.5625C109.359 73.5625 110.188 73.4062 110.969 73.0938C111.75 72.75 112.438 72.2969 113.031 71.7344C113.625 71.1406 114.078 70.4688 114.391 69.7188C114.734 68.9375 114.906 68.1094 114.906 67.2344V35.2656H127.656V67.2344C127.656 68.1094 127.828 68.9375 128.172 69.7188C128.516 70.4688 128.969 71.1406 129.531 71.7344C130.125 72.2969 130.797 72.75 131.547 73.0938C132.328 73.4062 133.156 73.5625 134.031 73.5625C134.906 73.5625 135.734 73.4062 136.516 73.0938C137.297 72.75 137.969 72.2969 138.531 71.7344C139.125 71.1406 139.594 70.4688 139.938 69.7188C140.281 68.9375 140.453 68.1094 140.453 67.2344V35.2656H153.203V67.2344Z" fill="url(#paint2_linear_216_423)"/>
<path d="M211.094 85.375H208L203.031 78.4844C201.812 79.5781 200.516 80.6094 199.141 81.5781C197.797 82.5156 196.375 83.3438 194.875 84.0625C193.375 84.75 191.828 85.2969 190.234 85.7031C188.672 86.1094 187.078 86.3125 185.453 86.3125C181.922 86.3125 178.594 85.7188 175.469 84.5312C172.375 83.3438 169.656 81.625 167.312 79.375C165 77.0938 163.172 74.3125 161.828 71.0312C160.484 67.75 159.812 64.0156 159.812 59.8281C159.812 55.9219 160.484 52.3438 161.828 49.0938C163.172 45.8125 165 43 167.312 40.6562C169.656 38.3125 172.375 36.5 175.469 35.2188C178.594 33.9062 181.922 33.25 185.453 33.25C187.078 33.25 188.688 33.4531 190.281 33.8594C191.875 34.2656 193.422 34.8281 194.922 35.5469C196.422 36.2656 197.844 37.1094 199.188 38.0781C200.562 39.0469 201.844 40.0938 203.031 41.2188L208 35.2656H211.094V85.375ZM198.203 59.8281C198.203 58.0781 197.859 56.3906 197.172 54.7656C196.516 53.1094 195.609 51.6562 194.453 50.4062C193.297 49.125 191.938 48.1094 190.375 47.3594C188.844 46.5781 187.203 46.1875 185.453 46.1875C183.703 46.1875 182.047 46.4844 180.484 47.0781C178.953 47.6719 177.609 48.5469 176.453 49.7031C175.328 50.8594 174.438 52.2969 173.781 54.0156C173.125 55.7031 172.797 57.6406 172.797 59.8281C172.797 62.0156 173.125 63.9688 173.781 65.6875C174.438 67.375 175.328 68.7969 176.453 69.9531C177.609 71.1094 178.953 71.9844 180.484 72.5781C182.047 73.1719 183.703 73.4688 185.453 73.4688C187.203 73.4688 188.844 73.0938 190.375 72.3438C191.938 71.5625 193.297 70.5469 194.453 69.2969C195.609 68.0156 196.516 66.5625 197.172 64.9375C197.859 63.2812 198.203 61.5781 198.203 59.8281Z" fill="url(#paint3_linear_216_423)"/>
<path d="M59.0781 85.375H13V18.1562H59.0781V31.6094H26.4531V45.0625H48.5312V58.5156H26.4531V71.9219H59.0781V85.375Z" stroke="#D9D9D9" stroke-width="26" mask="url(#path-1-outside-1_216_423)"/>
<path d="M82.2344 21.5312C82.2344 22.7188 82 23.8281 81.5312 24.8594C81.0938 25.8906 80.4844 26.7969 79.7031 27.5781C78.9219 28.3281 78 28.9375 76.9375 29.4062C75.9062 29.8438 74.7969 30.0625 73.6094 30.0625C72.4219 30.0625 71.2969 29.8438 70.2344 29.4062C69.2031 28.9375 68.2969 28.3281 67.5156 27.5781C66.7656 26.7969 66.1562 25.8906 65.6875 24.8594C65.25 23.8281 65.0312 22.7188 65.0312 21.5312C65.0312 20.375 65.25 19.2812 65.6875 18.25C66.1562 17.1875 66.7656 16.2812 67.5156 15.5312C68.2969 14.75 69.2031 14.1406 70.2344 13.7031C71.2969 13.2344 72.4219 13 73.6094 13C74.7969 13 75.9062 13.2344 76.9375 13.7031C78 14.1406 78.9219 14.75 79.7031 15.5312C80.4844 16.2812 81.0938 17.1875 81.5312 18.25C82 19.2812 82.2344 20.375 82.2344 21.5312ZM80.0312 85.375H67.1406V35.1719H80.0312V85.375Z" stroke="#D9D9D9" stroke-width="26" mask="url(#path-1-outside-1_216_423)"/>
<path d="M153.203 67.2344C153.203 69.8594 152.703 72.3438 151.703 74.6875C150.703 77 149.328 79.0156 147.578 80.7344C145.859 82.4531 143.828 83.8125 141.484 84.8125C139.172 85.8125 136.688 86.3125 134.031 86.3125C131.656 86.3125 129.375 85.9062 127.188 85.0938C125 84.25 123.016 83.0312 121.234 81.4375C119.484 83.0312 117.516 84.25 115.328 85.0938C113.172 85.9062 110.891 86.3125 108.484 86.3125C105.828 86.3125 103.344 85.8125 101.031 84.8125C98.7188 83.8125 96.6875 82.4531 94.9375 80.7344C93.2188 79.0156 91.8594 77 90.8594 74.6875C89.8594 72.3438 89.3594 69.8594 89.3594 67.2344V35.2656H102.156V67.2344C102.156 68.1094 102.312 68.9375 102.625 69.7188C102.969 70.4688 103.422 71.1406 103.984 71.7344C104.578 72.2969 105.25 72.75 106 73.0938C106.781 73.4062 107.609 73.5625 108.484 73.5625C109.359 73.5625 110.188 73.4062 110.969 73.0938C111.75 72.75 112.438 72.2969 113.031 71.7344C113.625 71.1406 114.078 70.4688 114.391 69.7188C114.734 68.9375 114.906 68.1094 114.906 67.2344V35.2656H127.656V67.2344C127.656 68.1094 127.828 68.9375 128.172 69.7188C128.516 70.4688 128.969 71.1406 129.531 71.7344C130.125 72.2969 130.797 72.75 131.547 73.0938C132.328 73.4062 133.156 73.5625 134.031 73.5625C134.906 73.5625 135.734 73.4062 136.516 73.0938C137.297 72.75 137.969 72.2969 138.531 71.7344C139.125 71.1406 139.594 70.4688 139.938 69.7188C140.281 68.9375 140.453 68.1094 140.453 67.2344V35.2656H153.203V67.2344Z" stroke="#D9D9D9" stroke-width="26" mask="url(#path-1-outside-1_216_423)"/>
<path d="M211.094 85.375H208L203.031 78.4844C201.812 79.5781 200.516 80.6094 199.141 81.5781C197.797 82.5156 196.375 83.3438 194.875 84.0625C193.375 84.75 191.828 85.2969 190.234 85.7031C188.672 86.1094 187.078 86.3125 185.453 86.3125C181.922 86.3125 178.594 85.7188 175.469 84.5312C172.375 83.3438 169.656 81.625 167.312 79.375C165 77.0938 163.172 74.3125 161.828 71.0312C160.484 67.75 159.812 64.0156 159.812 59.8281C159.812 55.9219 160.484 52.3438 161.828 49.0938C163.172 45.8125 165 43 167.312 40.6562C169.656 38.3125 172.375 36.5 175.469 35.2188C178.594 33.9062 181.922 33.25 185.453 33.25C187.078 33.25 188.688 33.4531 190.281 33.8594C191.875 34.2656 193.422 34.8281 194.922 35.5469C196.422 36.2656 197.844 37.1094 199.188 38.0781C200.562 39.0469 201.844 40.0938 203.031 41.2188L208 35.2656H211.094V85.375ZM198.203 59.8281C198.203 58.0781 197.859 56.3906 197.172 54.7656C196.516 53.1094 195.609 51.6562 194.453 50.4062C193.297 49.125 191.938 48.1094 190.375 47.3594C188.844 46.5781 187.203 46.1875 185.453 46.1875C183.703 46.1875 182.047 46.4844 180.484 47.0781C178.953 47.6719 177.609 48.5469 176.453 49.7031C175.328 50.8594 174.438 52.2969 173.781 54.0156C173.125 55.7031 172.797 57.6406 172.797 59.8281C172.797 62.0156 173.125 63.9688 173.781 65.6875C174.438 67.375 175.328 68.7969 176.453 69.9531C177.609 71.1094 178.953 71.9844 180.484 72.5781C182.047 73.1719 183.703 73.4688 185.453 73.4688C187.203 73.4688 188.844 73.0938 190.375 72.3438C191.938 71.5625 193.297 70.5469 194.453 69.2969C195.609 68.0156 196.516 66.5625 197.172 64.9375C197.859 63.2812 198.203 61.5781 198.203 59.8281Z" stroke="#D9D9D9" stroke-width="26" mask="url(#path-1-outside-1_216_423)"/>
<line x1="235.594" y1="14.1563" x2="235.594" y2="85.1562" stroke="#333333" stroke-width="3"/>
<path d="M258.552 41.4103C258.96 41.6949 259.682 42.0429 260.717 42.454C261.752 42.8336 262.976 43.0233 264.387 43.0233C265.611 43.0233 266.614 42.8177 267.399 42.4066C268.183 41.9638 268.779 41.3154 269.187 40.4614C269.626 39.6075 269.908 38.5005 270.034 37.1404C270.191 35.7804 270.269 34.1515 270.269 32.2538V14.6051H276.763V31.732C276.763 34.2622 276.621 36.5711 276.339 38.6586C276.057 40.7461 275.508 42.5489 274.692 44.0671C273.877 45.5852 272.637 46.7555 270.975 47.5778C269.344 48.4002 267.163 48.8114 264.434 48.8114C262.929 48.8114 261.58 48.6374 260.388 48.2895C259.196 47.9416 258.098 47.4197 257.094 46.7239L258.552 41.4103Z" fill="black"/>
<path d="M280.595 40.9359C280.595 39.3228 281.034 37.9153 281.913 36.7134C282.822 35.4799 284.077 34.5311 285.677 33.8669C287.277 33.2027 289.112 32.8706 291.182 32.8706C292.218 32.8706 293.268 32.9497 294.335 33.1078C295.402 33.2659 296.327 33.519 297.111 33.8669V32.5385C297.111 30.9571 296.641 29.7394 295.7 28.8854C294.79 28.0314 293.425 27.6044 291.606 27.6044C290.257 27.6044 288.971 27.8416 287.747 28.3161C286.524 28.7905 285.238 29.4863 283.889 30.4036L281.865 26.2286C283.497 25.1532 285.159 24.3467 286.853 23.809C288.579 23.2713 292.265 13.6562 294.147 13.6562C297.66 13.6562 298.507 23.8881 300.452 25.6593C302.428 27.4305 303.417 29.9608 303.417 33.2501V41.1731C303.417 41.8373 303.526 42.3117 303.746 42.5964C303.997 42.881 304.389 43.055 304.922 43.1182V48.2895C304.358 48.3844 303.84 48.4634 303.369 48.5267C302.93 48.59 302.554 48.6216 302.24 48.6216C300.985 48.6216 300.029 48.3369 299.37 47.7676C298.742 47.1983 298.35 46.5025 298.193 45.6801L298.052 44.3992C296.986 45.7908 295.653 46.8662 294.053 47.6253C292.453 48.3844 290.822 48.7639 289.159 48.7639C287.528 48.7639 286.053 48.4318 284.736 47.7676C283.45 47.0718 282.43 46.1387 281.677 44.9685C280.956 43.7666 280.595 42.4224 280.595 40.9359ZM295.935 42.2168C296.28 41.8373 296.562 41.4577 296.782 41.0782C297.001 40.6986 297.111 40.3507 297.111 40.0344V37.52C296.358 37.2037 295.543 36.9665 294.664 36.8083C293.786 36.6186 292.955 36.5237 292.17 36.5237C290.539 36.5237 289.19 36.8874 288.124 37.6149C287.089 38.3107 286.571 39.2437 286.571 40.414C286.571 41.0466 286.743 41.6475 287.089 42.2168C287.434 42.7861 287.936 43.2447 288.594 43.5926C289.253 43.9406 290.037 44.1145 290.947 44.1145C291.888 44.1145 292.814 43.9406 293.723 43.5926C294.633 43.2131 295.37 42.7545 295.935 42.2168Z" fill="black"/>
<path d="M326.154 48.2895L318.955 37.5674L315.614 40.8884V48.2895H309.309V13.6563H315.614V34.626L325.543 23.4769H332.224L323.049 34.0092L332.883 48.2895H326.154Z" fill="black"/>
<path d="M363.074 39.6075C363.074 41.5052 362.588 43.1024 361.616 44.3992C360.643 45.6643 359.326 46.629 357.663 47.2932C356.032 47.9574 354.244 48.2895 352.299 48.2895H336.159V14.6051H354.04C355.608 14.6051 356.957 15.0321 358.086 15.8861C359.247 16.7084 360.125 17.7838 360.721 19.1122C361.349 20.4089 361.663 21.769 361.663 23.1922C361.663 24.8053 361.255 26.3393 360.439 27.7942C359.624 29.2491 358.431 30.3245 356.863 31.0203C358.777 31.5896 360.282 32.6176 361.38 34.1041C362.51 35.5906 363.074 37.4251 363.074 39.6075ZM356.534 38.3739C356.534 37.52 356.361 36.7609 356.016 36.0967C355.671 35.4009 355.2 34.8632 354.604 34.4836C354.04 34.0725 353.381 33.8669 352.628 33.8669H342.652V42.7387H352.299C353.083 42.7387 353.789 42.5489 354.416 42.1694C355.075 41.7582 355.593 41.2205 355.969 40.5563C356.345 39.8921 356.534 39.1647 356.534 38.3739ZM342.652 20.2034V28.6956H351.311C352.032 28.6956 352.691 28.5217 353.287 28.1737C353.883 27.8258 354.353 27.3356 354.698 26.703C355.075 26.0704 355.263 25.3114 355.263 24.4258C355.263 23.5718 355.091 22.8285 354.746 22.196C354.432 21.5634 353.993 21.0731 353.428 20.7252C352.895 20.3773 352.283 20.2034 351.593 20.2034H342.652Z" fill="black"/>
<path d="M365.836 40.9359C365.836 39.3228 366.275 37.9153 367.153 36.7134C368.063 35.4799 369.318 34.5311 370.918 33.8669C372.517 33.2027 374.353 32.8706 376.423 32.8706C377.458 32.8706 378.509 32.9497 379.576 33.1078C380.642 33.2659 381.568 33.519 382.352 33.8669V32.5385C382.352 30.9571 381.881 29.7394 380.94 28.8854C380.031 28.0314 378.666 27.6044 376.847 27.6044C375.498 27.6044 374.211 27.8416 372.988 28.3161C371.765 28.7905 370.478 29.4863 369.13 30.4036L367.106 26.2286C368.737 25.1532 370.4 24.3467 372.094 23.809C373.819 23.2713 375.623 23.0025 377.505 23.0025C381.019 23.0025 383.748 23.8881 385.693 25.6593C387.669 27.4305 388.657 29.9608 388.657 33.2501V41.1731C388.657 41.8373 388.767 42.3117 388.987 42.5964C389.238 42.881 389.63 43.055 390.163 43.1182V48.2895C389.598 48.3844 389.081 48.4634 388.61 48.5267C388.171 48.59 387.795 48.6216 387.481 48.6216C386.226 48.6216 385.269 48.3369 384.611 47.7676C383.983 47.1983 383.591 46.5025 383.434 45.6801L383.293 44.3992C382.226 45.7908 380.893 46.8662 379.293 47.6253C377.694 48.3844 376.062 48.7639 374.4 48.7639C372.768 48.7639 371.294 48.4318 369.977 47.7676C368.69 47.0718 367.671 46.1387 366.918 44.9685C366.196 43.7666 365.836 42.4224 365.836 40.9359ZM381.176 42.2168C381.521 41.8373 381.803 41.4577 382.023 41.0782C382.242 40.6986 382.352 40.3507 382.352 40.0344V37.52C381.599 37.2037 380.783 36.9665 379.905 36.8083C379.027 36.6186 378.195 36.5237 377.411 36.5237C375.78 36.5237 374.431 36.8874 373.364 37.6149C372.329 38.3107 371.812 39.2437 371.812 40.414C371.812 41.0466 371.984 41.6475 372.329 42.2168C372.674 42.7861 373.176 43.2447 373.835 43.5926C374.494 43.9406 375.278 44.1145 376.188 44.1145C377.129 44.1145 378.054 43.9406 378.964 43.5926C379.874 43.2131 380.611 42.7545 381.176 42.2168Z" fill="black"/>
<path d="M409.23 28.9328C407.317 28.9328 405.607 29.3124 404.102 30.0715C402.596 30.7989 401.514 31.8585 400.855 33.2501V48.2895H394.549V23.4295H400.337V28.7431C401.215 27.0351 402.329 25.6909 403.678 24.7104C405.027 23.7299 406.454 23.1923 407.96 23.0974C408.305 23.0974 408.572 23.0974 408.76 23.0974C408.948 23.0974 409.105 23.1132 409.23 23.1448V28.9328Z" fill="black"/>
<path d="M414.848 13.6562L426.479 13.6562L426.479 15.8413L416.83 15.8413L416.83 21.5731L414.848 21.5731L414.848 13.6562Z" fill="#FF5107"/>
<path d="M417.387 22.127C417.944 22.127 418.43 22.2748 418.845 22.5704C419.271 22.8765 419.599 23.2987 419.828 23.8371C420.057 24.3754 420.172 24.9929 420.172 25.6896C420.172 26.0379 420.145 26.3916 420.09 26.7505C420.036 27.1094 419.948 27.4208 419.828 27.6846L420.287 27.6846C420.833 27.6846 421.253 27.5263 421.548 27.2096C421.843 26.9035 421.99 26.4443 421.99 25.8321C421.99 25.3782 421.909 24.9454 421.745 24.5337C421.581 24.1221 421.341 23.6893 421.024 23.2354L422.465 22.5545C422.837 23.1034 423.115 23.6629 423.301 24.2329C423.487 24.8135 423.579 25.4204 423.579 26.0538C423.579 27.236 423.274 28.1544 422.662 28.8088C422.05 29.4739 421.177 29.8064 420.041 29.8064L417.305 29.8064C417.076 29.8064 416.912 29.8433 416.814 29.9172C416.716 30.0016 416.655 30.1336 416.634 30.313L414.848 30.313C414.815 30.123 414.788 29.9489 414.766 29.7905C414.744 29.6427 414.733 29.5161 414.733 29.4105C414.733 28.9883 414.832 28.6663 415.028 28.4447C415.225 28.2336 415.465 28.1016 415.749 28.0488L416.191 28.0013C415.711 27.6424 415.339 27.1938 415.077 26.6555C414.815 26.1171 414.684 25.5682 414.684 25.0088C414.684 24.4599 414.799 23.9637 415.028 23.5204C415.268 23.0876 415.591 22.7445 415.995 22.4912C416.41 22.2484 416.874 22.127 417.387 22.127ZM416.945 27.2888C417.076 27.4049 417.207 27.4999 417.338 27.5738C417.469 27.6477 417.589 27.6846 417.698 27.6846L418.567 27.6846C418.676 27.4313 418.758 27.1569 418.812 26.8613C418.878 26.5657 418.911 26.286 418.911 26.0221C418.911 25.4732 418.785 25.0193 418.534 24.6604C418.294 24.3121 417.971 24.1379 417.567 24.1379C417.349 24.1379 417.141 24.196 416.945 24.3121C416.748 24.4282 416.59 24.5971 416.47 24.8188C416.35 25.0404 416.29 25.3043 416.29 25.6104C416.29 25.9271 416.35 26.2385 416.47 26.5446C416.601 26.8507 416.759 27.0988 416.945 27.2888Z" fill="#FF5107"/>
<path d="M414.684 36.5075C414.684 35.8741 414.832 35.3094 415.126 34.8133C415.421 34.3171 415.825 33.9266 416.339 33.6416L414.848 33.6416L414.848 31.789L426.807 31.789L426.807 33.9108L421.925 33.9108C422.438 34.2063 422.842 34.5916 423.137 35.0666C423.432 35.5522 423.579 36.1169 423.579 36.7608C423.579 37.2992 423.459 37.79 423.219 38.2333C422.99 38.6767 422.668 39.0567 422.253 39.3734C421.838 39.7006 421.362 39.9487 420.827 40.1176C420.292 40.297 419.719 40.3867 419.107 40.3867C418.496 40.3867 417.922 40.2864 417.387 40.0859C416.852 39.8959 416.377 39.6267 415.962 39.2784C415.558 38.93 415.241 38.5184 415.012 38.0433C414.793 37.5789 414.684 37.0669 414.684 36.5075ZM416.552 35.9216C416.552 36.2594 416.617 36.5655 416.748 36.84C416.89 37.125 417.076 37.3678 417.305 37.5683C417.535 37.7794 417.802 37.9378 418.108 38.0433C418.425 38.1595 418.752 38.2175 419.091 38.2175C419.56 38.2175 419.992 38.1225 420.385 37.9325C420.789 37.7531 421.111 37.4997 421.352 37.1725C421.592 36.8558 421.712 36.4811 421.712 36.0483C421.712 35.7422 421.635 35.4466 421.483 35.1616C421.341 34.8872 421.144 34.6391 420.893 34.4174C420.642 34.2063 420.358 34.0374 420.041 33.9108L417.993 33.9108C417.775 33.9741 417.578 34.0744 417.404 34.2116C417.229 34.3594 417.076 34.5283 416.945 34.7183C416.825 34.9083 416.726 35.1036 416.65 35.3041C416.584 35.5152 416.552 35.7211 416.552 35.9216Z" fill="#FF5107"/>
<path d="M414.684 44.8802C414.684 44.1729 414.804 43.4973 415.045 42.8534C415.285 42.2095 415.64 41.6554 416.109 41.1909L417.535 41.9509C417.12 42.447 416.814 42.9326 416.617 43.4076C416.421 43.8932 416.322 44.3576 416.322 44.801C416.322 45.2127 416.399 45.5399 416.552 45.7827C416.705 46.036 416.934 46.1627 417.24 46.1627C417.447 46.1627 417.606 46.0941 417.715 45.9568C417.835 45.8196 417.939 45.6191 418.026 45.3552C418.113 45.1018 418.212 44.7904 418.321 44.421C418.528 43.8087 418.73 43.2968 418.927 42.8851C419.124 42.4734 419.369 42.162 419.664 41.9509C419.97 41.7504 420.358 41.6501 420.827 41.6501C421.395 41.6501 421.881 41.7873 422.285 42.0618C422.7 42.3468 423.022 42.7373 423.252 43.2335C423.481 43.7401 423.596 44.3313 423.596 45.0068C423.596 45.598 423.498 46.1574 423.301 46.6852C423.115 47.213 422.81 47.6933 422.384 48.1261L420.991 47.271C421.33 46.8488 421.575 46.4477 421.728 46.0677C421.892 45.6877 421.974 45.3024 421.974 44.9118C421.974 44.6902 421.947 44.479 421.892 44.2785C421.838 44.0885 421.745 43.9301 421.614 43.8035C421.494 43.6874 421.319 43.6293 421.089 43.6293C420.882 43.6293 420.718 43.6821 420.598 43.7876C420.489 43.9037 420.39 44.0726 420.303 44.2943C420.216 44.5265 420.117 44.8063 420.008 45.1335C419.812 45.7985 419.61 46.358 419.402 46.8119C419.195 47.2763 418.938 47.6247 418.632 47.8569C418.337 48.0891 417.928 48.2052 417.404 48.2052C416.552 48.2052 415.886 47.9044 415.405 47.3027C414.924 46.701 414.684 45.8935 414.684 44.8802Z" fill="#FF5107"/>
<path d="M295.799 66.9353L301.883 63.1974V65.2789L298.61 67.3603L301.883 69.3539V71.5526L295.799 67.888V66.9353Z" fill="#333333"/>
<path d="M307.155 71.3034C306.54 71.3034 305.987 71.2008 305.497 70.9956C305.007 70.7806 304.589 70.4874 304.243 70.1161C303.897 69.735 303.628 69.305 303.435 68.8262C303.253 68.3473 303.161 67.8441 303.161 67.3164C303.161 66.5932 303.32 65.9336 303.637 65.3375C303.964 64.7316 304.425 64.2479 305.021 63.8863C305.617 63.5248 306.324 63.344 307.141 63.344C307.958 63.344 308.659 63.5248 309.246 63.8863C309.832 64.2479 310.269 64.7219 310.558 65.3082L308.669 65.8945C308.506 65.6111 308.289 65.3961 308.02 65.2496C307.751 65.0932 307.453 65.015 307.126 65.015C306.761 65.015 306.425 65.1127 306.117 65.3082C305.819 65.4939 305.584 65.7626 305.411 66.1144C305.238 66.4564 305.151 66.8571 305.151 67.3164C305.151 67.7659 305.238 68.1665 305.411 68.5183C305.593 68.8604 305.833 69.134 306.131 69.3392C306.429 69.5347 306.761 69.6324 307.126 69.6324C307.357 69.6324 307.573 69.5933 307.775 69.5151C307.987 69.4369 308.174 69.3294 308.337 69.1926C308.501 69.0558 308.621 68.8995 308.698 68.7236L310.587 69.3099C310.414 69.691 310.159 70.033 309.822 70.336C309.496 70.6389 309.106 70.8783 308.655 71.0542C308.212 71.2204 307.713 71.3034 307.155 71.3034Z" fill="#333333"/>
<path d="M315.194 71.3034C314.579 71.3034 314.026 71.2008 313.536 70.9956C313.046 70.7806 312.628 70.4874 312.282 70.1161C311.945 69.7448 311.686 69.3197 311.503 68.8408C311.32 68.362 311.229 67.8587 311.229 67.331C311.229 66.7936 311.32 66.2854 311.503 65.8066C311.686 65.3277 311.945 64.9026 312.282 64.5313C312.628 64.16 313.046 63.8717 313.536 63.6665C314.026 63.4515 314.579 63.344 315.194 63.344C315.809 63.344 316.357 63.4515 316.838 63.6665C317.328 63.8717 317.746 64.16 318.092 64.5313C318.438 64.9026 318.698 65.3277 318.871 65.8066C319.053 66.2854 319.145 66.7936 319.145 67.331C319.145 67.8587 319.053 68.362 318.871 68.8408C318.698 69.3197 318.438 69.7448 318.092 70.1161C317.756 70.4874 317.342 70.7806 316.852 70.9956C316.362 71.2008 315.809 71.3034 315.194 71.3034ZM313.219 67.331C313.219 67.7805 313.305 68.1812 313.478 68.533C313.651 68.875 313.887 69.1438 314.185 69.3392C314.483 69.5347 314.819 69.6324 315.194 69.6324C315.559 69.6324 315.891 69.5347 316.189 69.3392C316.487 69.134 316.722 68.8604 316.895 68.5183C317.078 68.1665 317.169 67.7659 317.169 67.3164C317.169 66.8766 317.078 66.4808 316.895 66.129C316.722 65.7772 316.487 65.5036 316.189 65.3082C315.891 65.1127 315.559 65.015 315.194 65.015C314.819 65.015 314.483 65.1176 314.185 65.3228C313.887 65.5183 313.651 65.7919 313.478 66.1437C313.305 66.4857 313.219 66.8815 313.219 67.331Z" fill="#333333"/>
<path d="M319.987 67.3164C319.987 66.5737 320.131 65.9043 320.42 65.3082C320.708 64.7023 321.107 64.2235 321.616 63.8717C322.126 63.5199 322.707 63.344 323.361 63.344C323.918 63.344 324.418 63.4857 324.86 63.7691C325.312 64.0427 325.663 64.3945 325.913 64.8245V60.4563H327.845V68.9581C327.845 69.1633 327.879 69.3099 327.946 69.3978C328.013 69.4858 328.128 69.5395 328.292 69.5591V71.1568C327.955 71.2252 327.681 71.2594 327.47 71.2594C327.124 71.2594 326.836 71.1715 326.605 70.9956C326.384 70.8197 326.259 70.59 326.23 70.3067L326.201 69.8229C325.922 70.3018 325.543 70.6682 325.062 70.9223C324.591 71.1764 324.096 71.3034 323.577 71.3034C323.058 71.3034 322.578 71.2008 322.135 70.9956C321.703 70.7904 321.323 70.507 320.996 70.1454C320.679 69.7838 320.429 69.3636 320.247 68.8848C320.074 68.3962 319.987 67.8734 319.987 67.3164ZM325.913 68.3424V66.5102C325.817 66.2268 325.663 65.9727 325.452 65.7479C325.24 65.5232 325.005 65.3473 324.745 65.2202C324.486 65.0834 324.226 65.015 323.966 65.015C323.669 65.015 323.399 65.0785 323.159 65.2056C322.919 65.3326 322.707 65.5036 322.525 65.7186C322.352 65.9336 322.217 66.1828 322.121 66.4662C322.034 66.7496 321.991 67.0476 321.991 67.3603C321.991 67.6731 322.039 67.9711 322.135 68.2545C322.241 68.5281 322.39 68.7675 322.582 68.9728C322.775 69.178 322.996 69.3392 323.246 69.4565C323.505 69.5737 323.784 69.6324 324.082 69.6324C324.264 69.6324 324.447 69.6031 324.63 69.5444C324.822 69.476 325 69.3881 325.163 69.2806C325.336 69.1633 325.485 69.0265 325.61 68.8701C325.745 68.704 325.846 68.5281 325.913 68.3424Z" fill="#333333"/>
<path d="M333.245 71.3034C332.639 71.3034 332.091 71.2008 331.601 70.9956C331.111 70.7806 330.693 70.4923 330.347 70.1308C330.001 69.7594 329.732 69.3392 329.539 68.8701C329.357 68.3913 329.265 67.888 329.265 67.3603C329.265 66.6274 329.424 65.958 329.741 65.3522C330.068 64.7463 330.529 64.2626 331.125 63.901C331.731 63.5296 332.442 63.344 333.259 63.344C334.086 63.344 334.792 63.5296 335.379 63.901C335.965 64.2626 336.412 64.7463 336.719 65.3522C337.037 65.9483 337.195 66.5932 337.195 67.287C337.195 67.4043 337.19 67.5265 337.181 67.6535C337.171 67.7708 337.162 67.8685 337.152 67.9467H331.313C331.351 68.3376 331.462 68.6796 331.644 68.9728C331.837 69.2659 332.077 69.4907 332.365 69.647C332.663 69.7936 332.98 69.8669 333.317 69.8669C333.701 69.8669 334.062 69.7741 334.398 69.5884C334.744 69.393 334.98 69.1389 335.105 68.8262L336.763 69.2952C336.58 69.6861 336.316 70.033 335.97 70.336C335.633 70.6389 335.234 70.8783 334.773 71.0542C334.312 71.2204 333.802 71.3034 333.245 71.3034ZM331.27 66.7007H335.22C335.182 66.3098 335.071 65.9727 334.888 65.6893C334.715 65.3961 334.485 65.1714 334.196 65.015C333.908 64.8489 333.586 64.7658 333.23 64.7658C332.884 64.7658 332.567 64.8489 332.279 65.015C332 65.1714 331.769 65.3961 331.587 65.6893C331.414 65.9727 331.308 66.3098 331.27 66.7007Z" fill="#333333"/>
<path d="M344.457 67.888L338.372 71.5526V69.3539L341.645 67.3603L338.372 65.2789V63.1974L344.457 66.9353V67.888Z" fill="#333333"/>
<path d="M352.913 71.3034C352.375 71.3034 351.875 71.2008 351.414 70.9956C350.952 70.7806 350.553 70.4923 350.217 70.1308C349.88 69.7594 349.616 69.3343 349.424 68.8555C349.241 68.3766 349.15 67.8636 349.15 67.3164C349.15 66.603 349.309 65.9483 349.626 65.3522C349.953 64.7561 350.399 64.2821 350.967 63.9303C351.534 63.5687 352.178 63.388 352.899 63.388C353.639 63.388 354.283 63.5687 354.831 63.9303C355.388 64.2919 355.825 64.7707 356.143 65.3668C356.46 65.9531 356.618 66.5981 356.618 67.3017C356.618 67.3799 356.618 67.4581 356.618 67.5362C356.618 67.6046 356.614 67.6584 356.604 67.6975H350.174C350.222 68.2447 350.371 68.7333 350.621 69.1633C350.88 69.5835 351.212 69.9207 351.615 70.1747C352.029 70.419 352.476 70.5412 352.956 70.5412C353.446 70.5412 353.908 70.4141 354.34 70.1601C354.782 69.906 355.09 69.5737 355.263 69.1633L356.114 69.3978C355.96 69.7594 355.724 70.0868 355.407 70.3799C355.09 70.6731 354.715 70.9028 354.283 71.0689C353.86 71.2252 353.403 71.3034 352.913 71.3034ZM350.145 66.9792H355.696C355.657 66.4222 355.508 65.9336 355.249 65.5134C354.999 65.0932 354.667 64.7658 354.254 64.5313C353.85 64.287 353.403 64.1648 352.913 64.1648C352.423 64.1648 351.976 64.287 351.572 64.5313C351.168 64.7658 350.837 65.0981 350.577 65.5281C350.327 65.9483 350.183 66.432 350.145 66.9792Z" fill="#333333"/>
<path d="M360.169 71.1568L357.126 63.5199H358.15L360.717 70.1601L363.297 63.5199H364.263L361.221 71.1568H360.169Z" fill="#333333"/>
<path d="M368.612 71.3034C368.074 71.3034 367.574 71.2008 367.113 70.9956C366.651 70.7806 366.252 70.4923 365.916 70.1308C365.58 69.7594 365.315 69.3343 365.123 68.8555C364.94 68.3766 364.849 67.8636 364.849 67.3164C364.849 66.603 365.008 65.9483 365.325 65.3522C365.652 64.7561 366.099 64.2821 366.666 63.9303C367.233 63.5687 367.877 63.388 368.598 63.388C369.338 63.388 369.982 63.5687 370.53 63.9303C371.087 64.2919 371.524 64.7707 371.842 65.3668C372.159 65.9531 372.317 66.5981 372.317 67.3017C372.317 67.3799 372.317 67.4581 372.317 67.5362C372.317 67.6046 372.313 67.6584 372.303 67.6975H365.873C365.921 68.2447 366.07 68.7333 366.32 69.1633C366.579 69.5835 366.911 69.9207 367.314 70.1747C367.728 70.419 368.175 70.5412 368.655 70.5412C369.146 70.5412 369.607 70.4141 370.039 70.1601C370.482 69.906 370.789 69.5737 370.962 69.1633L371.813 69.3978C371.659 69.7594 371.424 70.0868 371.106 70.3799C370.789 70.6731 370.414 70.9028 369.982 71.0689C369.559 71.2252 369.102 71.3034 368.612 71.3034ZM365.844 66.9792H371.395C371.356 66.4222 371.207 65.9336 370.948 65.5134C370.698 65.0932 370.366 64.7658 369.953 64.5313C369.549 64.287 369.102 64.1648 368.612 64.1648C368.122 64.1648 367.675 64.287 367.271 64.5313C366.867 64.7658 366.536 65.0981 366.276 65.5281C366.026 65.9483 365.882 66.432 365.844 66.9792Z" fill="#333333"/>
<path d="M377.579 64.3994C376.925 64.4189 376.348 64.6046 375.849 64.9564C375.358 65.3082 375.012 65.7919 374.81 66.4076V71.1568H373.83V63.5199H374.753V65.3522C375.012 64.8147 375.354 64.3798 375.776 64.0476C376.209 63.7153 376.666 63.5296 377.146 63.4906C377.242 63.4808 377.324 63.4759 377.391 63.4759C377.468 63.4759 377.531 63.4808 377.579 63.4906V64.3994Z" fill="#333333"/>
<path d="M379.317 73.5022C379.452 73.5119 379.582 73.5168 379.707 73.5168C379.831 73.5266 379.923 73.5217 379.98 73.5022C380.096 73.4826 380.206 73.4142 380.312 73.2969C380.418 73.1797 380.543 72.9549 380.687 72.6227C380.831 72.2904 381.033 71.8018 381.292 71.1568L378.02 63.5199H379.058L381.812 70.1308L384.349 63.5199H385.329L381.437 73.3702C381.369 73.5559 381.268 73.7269 381.134 73.8833C380.999 74.0494 380.831 74.1764 380.629 74.2644C380.437 74.3621 380.197 74.4159 379.908 74.4256C379.822 74.4354 379.731 74.4354 379.634 74.4256C379.548 74.4256 379.442 74.4159 379.317 74.3963V73.5022Z" fill="#333333"/>
<path d="M396.157 63.5199H397.123L393.894 71.1568H393.043L391.471 67.3603L389.914 71.1568H389.064L385.834 63.5199H386.786L389.525 70.1308L390.909 66.6861L389.64 63.5345H390.52L391.471 66.0118L392.437 63.5345H393.302L392.048 66.6861L393.432 70.1308L396.157 63.5199Z" fill="#333333"/>
<path d="M404.743 71.1568H403.762V66.8913C403.762 66.0313 403.613 65.3864 403.315 64.9564C403.017 64.5166 402.59 64.2968 402.032 64.2968C401.667 64.2968 401.302 64.3945 400.936 64.5899C400.581 64.7756 400.263 65.0346 399.985 65.3668C399.716 65.6893 399.523 66.0606 399.408 66.4808V71.1568H398.428V60.4563H399.408V65.2496C399.706 64.6828 400.119 64.2332 400.648 63.901C401.186 63.559 401.758 63.388 402.364 63.388C402.796 63.388 403.161 63.4661 403.459 63.6225C403.767 63.7788 404.012 64.0085 404.195 64.3114C404.387 64.6046 404.526 64.9515 404.613 65.3522C404.699 65.743 404.743 66.1877 404.743 66.6861V71.1568Z" fill="#333333"/>
<path d="M410.077 71.3034C409.539 71.3034 409.039 71.2008 408.578 70.9956C408.116 70.7806 407.718 70.4923 407.381 70.1308C407.045 69.7594 406.78 69.3343 406.588 68.8555C406.406 68.3766 406.314 67.8636 406.314 67.3164C406.314 66.603 406.473 65.9483 406.79 65.3522C407.117 64.7561 407.564 64.2821 408.131 63.9303C408.698 63.5687 409.342 63.388 410.063 63.388C410.803 63.388 411.447 63.5687 411.995 63.9303C412.552 64.2919 412.99 64.7707 413.307 65.3668C413.624 65.9531 413.783 66.5981 413.783 67.3017C413.783 67.3799 413.783 67.4581 413.783 67.5362C413.783 67.6046 413.778 67.6584 413.768 67.6975H407.338C407.386 68.2447 407.535 68.7333 407.785 69.1633C408.044 69.5835 408.376 69.9207 408.78 70.1747C409.193 70.419 409.64 70.5412 410.121 70.5412C410.611 70.5412 411.072 70.4141 411.505 70.1601C411.947 69.906 412.254 69.5737 412.427 69.1633L413.278 69.3978C413.124 69.7594 412.889 70.0868 412.572 70.3799C412.254 70.6731 411.879 70.9028 411.447 71.0689C411.024 71.2252 410.567 71.3034 410.077 71.3034ZM407.309 66.9792H412.86C412.821 66.4222 412.672 65.9336 412.413 65.5134C412.163 65.0932 411.831 64.7658 411.418 64.5313C411.014 64.287 410.567 64.1648 410.077 64.1648C409.587 64.1648 409.14 64.287 408.736 64.5313C408.333 64.7658 408.001 65.0981 407.742 65.5281C407.492 65.9483 407.347 66.432 407.309 66.9792Z" fill="#333333"/>
<path d="M419.044 64.3994C418.39 64.4189 417.814 64.6046 417.314 64.9564C416.824 65.3082 416.478 65.7919 416.276 66.4076V71.1568H415.295V63.5199H416.218V65.3522C416.478 64.8147 416.819 64.3798 417.242 64.0476C417.674 63.7153 418.131 63.5296 418.611 63.4906C418.707 63.4808 418.789 63.4759 418.856 63.4759C418.933 63.4759 418.996 63.4808 419.044 63.4906V64.3994Z" fill="#333333"/>
<path d="M423.355 71.3034C422.816 71.3034 422.316 71.2008 421.855 70.9956C421.394 70.7806 420.995 70.4923 420.658 70.1308C420.322 69.7594 420.058 69.3343 419.865 68.8555C419.683 68.3766 419.592 67.8636 419.592 67.3164C419.592 66.603 419.75 65.9483 420.067 65.3522C420.394 64.7561 420.841 64.2821 421.408 63.9303C421.975 63.5687 422.619 63.388 423.34 63.388C424.08 63.388 424.724 63.5687 425.272 63.9303C425.83 64.2919 426.267 64.7707 426.584 65.3668C426.901 65.9531 427.06 66.5981 427.06 67.3017C427.06 67.3799 427.06 67.4581 427.06 67.5362C427.06 67.6046 427.055 67.6584 427.046 67.6975H420.615C420.663 68.2447 420.812 68.7333 421.062 69.1633C421.322 69.5835 421.653 69.9207 422.057 70.1747C422.47 70.419 422.917 70.5412 423.398 70.5412C423.888 70.5412 424.349 70.4141 424.782 70.1601C425.224 69.906 425.532 69.5737 425.705 69.1633L426.555 69.3978C426.402 69.7594 426.166 70.0868 425.849 70.3799C425.532 70.6731 425.157 70.9028 424.724 71.0689C424.301 71.2252 423.845 71.3034 423.355 71.3034ZM420.586 66.9792H426.137C426.099 66.4222 425.95 65.9336 425.69 65.5134C425.44 65.0932 425.109 64.7658 424.695 64.5313C424.292 64.287 423.845 64.1648 423.355 64.1648C422.864 64.1648 422.417 64.287 422.014 64.5313C421.61 64.7658 421.278 65.0981 421.019 65.5281C420.769 65.9483 420.625 66.432 420.586 66.9792Z" fill="#333333"/>
<path d="M257.094 83.311C257.094 82.8321 257.228 82.4217 257.497 82.0797C257.767 81.7279 258.137 81.4591 258.608 81.2735C259.088 81.078 259.641 80.9803 260.266 80.9803C260.631 80.9803 261.011 81.0096 261.405 81.0683C261.799 81.1269 262.15 81.2148 262.457 81.3321V80.6871C262.457 80.0422 262.27 79.5291 261.895 79.148C261.52 78.7669 261.001 78.5764 260.338 78.5764C259.934 78.5764 259.535 78.6545 259.141 78.8109C258.757 78.9575 258.353 79.1773 257.93 79.4705L257.555 78.7669C258.045 78.4249 258.526 78.1708 258.997 78.0047C259.468 77.8288 259.948 77.7408 260.439 77.7408C261.361 77.7408 262.092 78.0096 262.63 78.547C263.168 79.0845 263.438 79.8272 263.438 80.7751V84.3077C263.438 84.4445 263.466 84.5472 263.524 84.6156C263.582 84.6742 263.673 84.7084 263.798 84.7182V85.5097C263.692 85.5195 263.601 85.5293 263.524 85.539C263.447 85.5488 263.39 85.5488 263.351 85.539C263.111 85.5293 262.928 85.4511 262.803 85.3045C262.678 85.1579 262.611 85.0016 262.601 84.8354L262.587 84.2784C262.251 84.7182 261.813 85.0602 261.275 85.3045C260.737 85.539 260.189 85.6563 259.631 85.6563C259.151 85.6563 258.713 85.5537 258.319 85.3485C257.935 85.1335 257.632 84.8501 257.411 84.4983C257.199 84.1367 257.094 83.741 257.094 83.311ZM262.126 83.8973C262.231 83.7605 262.313 83.6286 262.371 83.5015C262.428 83.3745 262.457 83.2621 262.457 83.1644V82.0504C262.13 81.9233 261.789 81.8256 261.434 81.7572C261.087 81.6888 260.737 81.6546 260.381 81.6546C259.679 81.6546 259.112 81.7963 258.68 82.0797C258.247 82.3631 258.031 82.7491 258.031 83.2377C258.031 83.5211 258.103 83.7898 258.247 84.0439C258.391 84.2882 258.603 84.4934 258.882 84.6595C259.16 84.8159 259.487 84.8941 259.862 84.8941C260.333 84.8941 260.77 84.8012 261.174 84.6156C261.587 84.4299 261.904 84.1905 262.126 83.8973Z" fill="#333333"/>
<path d="M271.871 85.5097H270.89V81.2442C270.89 80.3451 270.761 79.6904 270.501 79.28C270.242 78.8597 269.833 78.6496 269.276 78.6496C268.891 78.6496 268.512 78.7474 268.137 78.9428C267.762 79.1285 267.43 79.3874 267.142 79.7197C266.863 80.0422 266.661 80.4135 266.536 80.8337V85.5097H265.556V77.8728H266.45V79.6024C266.652 79.2311 266.916 78.9086 267.243 78.635C267.57 78.3516 267.94 78.1317 268.353 77.9754C268.766 77.819 269.194 77.7408 269.636 77.7408C270.049 77.7408 270.4 77.819 270.689 77.9754C270.977 78.1317 271.208 78.3565 271.381 78.6496C271.554 78.933 271.679 79.28 271.756 79.6904C271.832 80.091 271.871 80.5406 271.871 81.0389V85.5097Z" fill="#333333"/>
<path d="M273.457 81.7132C273.457 80.9901 273.601 80.3305 273.889 79.7344C274.187 79.1285 274.596 78.6448 275.115 78.2832C275.634 77.9216 276.225 77.7408 276.888 77.7408C277.513 77.7408 278.071 77.9118 278.561 78.2539C279.061 78.5861 279.45 78.9917 279.729 79.4705V74.8092H280.709V84.3077C280.709 84.4445 280.738 84.5472 280.796 84.6156C280.853 84.6742 280.94 84.7084 281.055 84.7182V85.5097C280.863 85.539 280.714 85.5488 280.608 85.539C280.406 85.5293 280.228 85.4462 280.075 85.2898C279.921 85.1335 279.844 84.9625 279.844 84.7768V84.0292C279.546 84.5276 279.142 84.9234 278.633 85.2165C278.123 85.5097 277.595 85.6563 277.047 85.6563C276.528 85.6563 276.047 85.5488 275.605 85.3338C275.173 85.1188 274.793 84.8257 274.466 84.4543C274.149 84.083 273.899 83.6628 273.716 83.1937C273.543 82.7149 273.457 82.2214 273.457 81.7132ZM279.729 82.8859V80.5259C279.604 80.1741 279.402 79.8565 279.123 79.5731C278.844 79.28 278.527 79.0503 278.172 78.8842C277.826 78.7083 277.479 78.6203 277.133 78.6203C276.73 78.6203 276.365 78.7083 276.038 78.8842C275.711 79.0503 275.427 79.28 275.187 79.5731C274.956 79.8663 274.779 80.1985 274.654 80.5699C274.529 80.9412 274.466 81.3223 274.466 81.7132C274.466 82.1237 274.533 82.5145 274.668 82.8859C274.812 83.2572 275.014 83.5895 275.274 83.8826C275.533 84.166 275.831 84.3859 276.167 84.5423C276.504 84.6986 276.869 84.7768 277.263 84.7768C277.513 84.7768 277.773 84.7279 278.042 84.6302C278.311 84.5325 278.566 84.4006 278.806 84.2344C279.056 84.0585 279.262 83.8533 279.426 83.6188C279.589 83.3843 279.69 83.14 279.729 82.8859Z" fill="#333333"/>
<path d="M286.605 85.5097V77.8728H287.586V85.5097H286.605ZM286.605 76.275V74.8092H287.586V76.275H286.605Z" fill="#333333"/>
<path d="M293.35 85.1433C293.273 85.1726 293.152 85.2263 292.989 85.3045C292.826 85.3827 292.629 85.4511 292.398 85.5097C292.167 85.5683 291.917 85.5977 291.648 85.5977C291.369 85.5977 291.105 85.5439 290.855 85.4364C290.615 85.3289 290.423 85.1677 290.279 84.9527C290.134 84.7279 290.062 84.4543 290.062 84.1318V78.6643H289.024V77.8728H290.062V75.2929H291.043V77.8728H292.773V78.6643H291.043V83.8533C291.062 84.127 291.158 84.3322 291.331 84.469C291.514 84.6058 291.72 84.6742 291.951 84.6742C292.22 84.6742 292.465 84.6302 292.686 84.5423C292.907 84.4445 293.042 84.3761 293.09 84.3371L293.35 85.1433Z" fill="#333333"/>
<path d="M301.926 85.6563C301.34 85.6563 300.796 85.5048 300.297 85.2019C299.797 84.8892 299.408 84.4983 299.129 84.0292V85.5097H298.249V74.8092H299.23V79.4705C299.566 78.9526 299.97 78.5373 300.441 78.2246C300.912 77.9021 301.46 77.7408 302.084 77.7408C302.613 77.7408 303.084 77.8532 303.497 78.078C303.92 78.3027 304.281 78.6057 304.579 78.9868C304.877 79.3581 305.103 79.7832 305.256 80.2621C305.41 80.7311 305.487 81.2148 305.487 81.7132C305.487 82.2507 305.396 82.754 305.213 83.223C305.04 83.6921 304.79 84.1123 304.463 84.4836C304.137 84.8452 303.757 85.1335 303.324 85.3485C302.901 85.5537 302.435 85.6563 301.926 85.6563ZM301.695 84.7768C302.099 84.7768 302.474 84.6937 302.82 84.5276C303.166 84.3615 303.464 84.1318 303.714 83.8387C303.964 83.5455 304.156 83.2181 304.29 82.8566C304.425 82.4852 304.492 82.1041 304.492 81.7132C304.492 81.1758 304.377 80.6725 304.146 80.2034C303.925 79.7246 303.613 79.3435 303.209 79.0601C302.815 78.7669 302.349 78.6203 301.811 78.6203C301.426 78.6203 301.066 78.7083 300.729 78.8842C300.402 79.0601 300.109 79.2946 299.85 79.5878C299.6 79.8712 299.393 80.1839 299.23 80.5259V82.9005C299.268 83.1644 299.369 83.4136 299.532 83.6481C299.696 83.8729 299.898 84.0683 300.138 84.2344C300.388 84.4006 300.647 84.5325 300.917 84.6302C301.186 84.7279 301.445 84.7768 301.695 84.7768Z" fill="#333333"/>
<path d="M310.392 85.6563C309.854 85.6563 309.354 85.5537 308.892 85.3485C308.431 85.1335 308.032 84.8452 307.696 84.4836C307.359 84.1123 307.095 83.6872 306.903 83.2084C306.72 82.7295 306.629 82.2165 306.629 81.6692C306.629 80.9559 306.787 80.3011 307.105 79.705C307.431 79.1089 307.878 78.635 308.445 78.2832C309.012 77.9216 309.656 77.7408 310.377 77.7408C311.117 77.7408 311.761 77.9216 312.309 78.2832C312.867 78.6448 313.304 79.1236 313.621 79.7197C313.939 80.306 314.097 80.951 314.097 81.6546C314.097 81.7328 314.097 81.8109 314.097 81.8891C314.097 81.9575 314.092 82.0113 314.083 82.0504H307.652C307.7 82.5976 307.849 83.0862 308.099 83.5162C308.359 83.9364 308.69 84.2735 309.094 84.5276C309.508 84.7719 309.954 84.8941 310.435 84.8941C310.925 84.8941 311.387 84.767 311.819 84.513C312.261 84.2589 312.569 83.9266 312.742 83.5162L313.593 83.7507C313.439 84.1123 313.203 84.4397 312.886 84.7328C312.569 85.026 312.194 85.2556 311.761 85.4218C311.339 85.5781 310.882 85.6563 310.392 85.6563ZM307.624 81.3321H313.174C313.136 80.7751 312.987 80.2865 312.727 79.8663C312.478 79.4461 312.146 79.1187 311.733 78.8842C311.329 78.6399 310.882 78.5177 310.392 78.5177C309.902 78.5177 309.455 78.6399 309.051 78.8842C308.647 79.1187 308.316 79.451 308.056 79.8809C307.806 80.3011 307.662 80.7849 307.624 81.3321Z" fill="#333333"/>
<path d="M318.868 85.6563C318.32 85.6563 317.816 85.5537 317.354 85.3485C316.903 85.1335 316.504 84.8403 316.158 84.469C315.821 84.0976 315.557 83.6725 315.365 83.1937C315.182 82.7149 315.091 82.2067 315.091 81.6692C315.091 80.9461 315.249 80.2865 315.567 79.6904C315.884 79.0943 316.326 78.6203 316.893 78.2685C317.46 77.9167 318.114 77.7408 318.854 77.7408C319.555 77.7408 320.175 77.907 320.714 78.2392C321.252 78.5617 321.651 79.0014 321.91 79.5585L320.959 79.8663C320.747 79.4754 320.449 79.1725 320.065 78.9575C319.69 78.7327 319.272 78.6203 318.811 78.6203C318.311 78.6203 317.854 78.7523 317.441 79.0161C317.028 79.28 316.696 79.6415 316.446 80.1008C316.206 80.5601 316.086 81.0829 316.086 81.6692C316.086 82.2458 316.211 82.7686 316.46 83.2377C316.71 83.7067 317.042 84.083 317.455 84.3664C317.869 84.64 318.325 84.7768 318.825 84.7768C319.152 84.7768 319.464 84.7182 319.762 84.6009C320.07 84.4836 320.334 84.3273 320.555 84.1318C320.786 83.9266 320.94 83.7067 321.016 83.4722L321.982 83.7654C321.848 84.127 321.622 84.4543 321.305 84.7475C320.997 85.0309 320.632 85.2556 320.209 85.4218C319.796 85.5781 319.349 85.6563 318.868 85.6563Z" fill="#333333"/>
<path d="M326.653 85.6563C326.115 85.6563 325.615 85.5537 325.154 85.3485C324.702 85.1335 324.308 84.8452 323.971 84.4836C323.645 84.1123 323.39 83.6921 323.207 83.223C323.025 82.7442 322.933 82.2409 322.933 81.7132C322.933 81.166 323.025 80.6578 323.207 80.1888C323.39 79.7099 323.649 79.2897 323.986 78.9282C324.322 78.5568 324.716 78.2685 325.168 78.0633C325.629 77.8483 326.129 77.7408 326.667 77.7408C327.206 77.7408 327.701 77.8483 328.152 78.0633C328.604 78.2685 328.998 78.5568 329.335 78.9282C329.671 79.2897 329.931 79.7099 330.113 80.1888C330.296 80.6578 330.387 81.166 330.387 81.7132C330.387 82.2409 330.296 82.7442 330.113 83.223C329.931 83.6921 329.671 84.1123 329.335 84.4836C329.008 84.8452 328.614 85.1335 328.152 85.3485C327.701 85.5537 327.201 85.6563 326.653 85.6563ZM323.928 81.7279C323.928 82.2947 324.048 82.8126 324.289 83.2817C324.538 83.741 324.87 84.1074 325.283 84.381C325.697 84.6449 326.153 84.7768 326.653 84.7768C327.153 84.7768 327.609 84.64 328.023 84.3664C328.436 84.0927 328.768 83.7214 329.018 83.2523C329.267 82.7735 329.392 82.2556 329.392 81.6986C329.392 81.1318 329.267 80.6139 329.018 80.1448C328.768 79.6757 328.436 79.3044 328.023 79.0308C327.609 78.7571 327.153 78.6203 326.653 78.6203C326.153 78.6203 325.697 78.762 325.283 79.0454C324.88 79.3288 324.553 79.705 324.303 80.1741C324.053 80.6334 323.928 81.1513 323.928 81.7279Z" fill="#333333"/>
<path d="M343.201 85.5097H342.22V81.2442C342.22 80.3549 342.081 79.7002 341.802 79.28C341.523 78.8597 341.11 78.6496 340.562 78.6496C339.995 78.6496 339.486 78.8549 339.034 79.2653C338.592 79.6757 338.279 80.2034 338.097 80.8484V85.5097H337.116V81.2442C337.116 80.3451 336.982 79.6904 336.713 79.28C336.444 78.8597 336.03 78.6496 335.473 78.6496C334.915 78.6496 334.411 78.85 333.959 79.2506C333.507 79.6513 333.19 80.179 333.007 80.8337V85.5097H332.027V77.8728H332.921V79.6024C333.238 79.0063 333.642 78.547 334.132 78.2246C334.632 77.9021 335.184 77.7408 335.79 77.7408C336.415 77.7408 336.919 77.9216 337.304 78.2832C337.688 78.6448 337.924 79.1187 338.01 79.705C338.356 79.0601 338.77 78.5715 339.25 78.2392C339.74 77.907 340.293 77.7408 340.908 77.7408C341.331 77.7408 341.687 77.819 341.975 77.9754C342.273 78.1317 342.509 78.3565 342.682 78.6496C342.864 78.933 342.994 79.28 343.071 79.6904C343.157 80.091 343.201 80.5406 343.201 81.0389V85.5097Z" fill="#333333"/>
<path d="M348.52 85.6563C347.982 85.6563 347.482 85.5537 347.021 85.3485C346.559 85.1335 346.16 84.8452 345.824 84.4836C345.488 84.1123 345.223 83.6872 345.031 83.2084C344.848 82.7295 344.757 82.2165 344.757 81.6692C344.757 80.9559 344.916 80.3011 345.233 79.705C345.56 79.1089 346.007 78.635 346.574 78.2832C347.141 77.9216 347.785 77.7408 348.506 77.7408C349.246 77.7408 349.89 77.9216 350.438 78.2832C350.995 78.6448 351.432 79.1236 351.75 79.7197C352.067 80.306 352.225 80.951 352.225 81.6546C352.225 81.7328 352.225 81.8109 352.225 81.8891C352.225 81.9575 352.221 82.0113 352.211 82.0504H345.781C345.829 82.5976 345.978 83.0862 346.228 83.5162C346.487 83.9364 346.819 84.2735 347.222 84.5276C347.636 84.7719 348.083 84.8941 348.563 84.8941C349.054 84.8941 349.515 84.767 349.947 84.513C350.39 84.2589 350.697 83.9266 350.87 83.5162L351.721 83.7507C351.567 84.1123 351.332 84.4397 351.014 84.7328C350.697 85.026 350.322 85.2556 349.89 85.4218C349.467 85.5781 349.01 85.6563 348.52 85.6563ZM345.752 81.3321H351.303C351.264 80.7751 351.115 80.2865 350.856 79.8663C350.606 79.4461 350.274 79.1187 349.861 78.8842C349.457 78.6399 349.01 78.5177 348.52 78.5177C348.03 78.5177 347.583 78.6399 347.179 78.8842C346.776 79.1187 346.444 79.451 346.184 79.8809C345.934 80.3011 345.79 80.7849 345.752 81.3321Z" fill="#333333"/>
<path d="M356.204 85.6563C355.588 85.6563 355.016 85.5537 354.488 85.3485C353.959 85.1433 353.503 84.8305 353.118 84.4103L353.522 83.7067C353.945 84.1074 354.368 84.4006 354.791 84.5862C355.223 84.7621 355.68 84.8501 356.16 84.8501C356.747 84.8501 357.222 84.7328 357.588 84.4983C357.953 84.254 358.136 83.9071 358.136 83.4576C358.136 83.1546 358.044 82.925 357.862 82.7686C357.689 82.6025 357.434 82.4706 357.097 82.3728C356.771 82.2654 356.377 82.153 355.915 82.0357C355.396 81.8891 354.959 81.7377 354.603 81.5813C354.257 81.4152 353.993 81.21 353.81 80.9657C353.637 80.7116 353.551 80.3842 353.551 79.9835C353.551 79.4852 353.671 79.0747 353.911 78.7523C354.161 78.42 354.497 78.1708 354.92 78.0047C355.353 77.8288 355.833 77.7408 356.362 77.7408C356.939 77.7408 357.448 77.8337 357.89 78.0193C358.333 78.205 358.693 78.464 358.972 78.7962L358.496 79.4705C358.227 79.1578 357.905 78.9282 357.53 78.7816C357.165 78.6252 356.756 78.547 356.304 78.547C355.997 78.547 355.704 78.591 355.425 78.679C355.146 78.7571 354.916 78.894 354.733 79.0894C354.56 79.2751 354.473 79.534 354.473 79.8663C354.473 80.1399 354.541 80.3549 354.675 80.5112C354.81 80.6578 355.012 80.7849 355.281 80.8924C355.55 80.9901 355.882 81.0976 356.276 81.2148C356.843 81.3712 357.338 81.5324 357.761 81.6986C358.184 81.8549 358.51 82.0601 358.741 82.3142C358.972 82.5683 359.087 82.925 359.087 83.3843C359.087 84.0976 358.823 84.6546 358.294 85.0553C357.765 85.456 357.069 85.6563 356.204 85.6563Z" fill="#333333"/>
<path d="M363.662 83.2377C363.662 82.7393 363.796 82.3044 364.065 81.9331C364.344 81.552 364.728 81.2588 365.219 81.0536C365.709 80.8484 366.271 80.7458 366.906 80.7458C367.223 80.7458 367.545 80.7702 367.872 80.8191C368.198 80.8679 368.482 80.9461 368.722 81.0536V80.6432C368.722 80.1546 368.578 79.7783 368.29 79.5145C368.011 79.2506 367.593 79.1187 367.035 79.1187C366.622 79.1187 366.228 79.192 365.853 79.3386C365.478 79.4852 365.084 79.7002 364.671 79.9835L364.051 78.6936C364.551 78.3614 365.06 78.1122 365.579 77.9461C366.108 77.7799 366.66 77.6969 367.237 77.6969C368.314 77.6969 369.15 77.9705 369.746 78.5177C370.351 79.065 370.654 79.8467 370.654 80.863V83.311C370.654 83.5162 370.688 83.6628 370.755 83.7507C370.832 83.8387 370.952 83.8924 371.116 83.912V85.5097C370.943 85.539 370.784 85.5635 370.64 85.583C370.505 85.6025 370.39 85.6123 370.294 85.6123C369.909 85.6123 369.616 85.5244 369.414 85.3485C369.222 85.1726 369.102 84.9576 369.054 84.7035L369.011 84.3077C368.684 84.7377 368.275 85.07 367.785 85.3045C367.295 85.539 366.795 85.6563 366.286 85.6563C365.786 85.6563 365.334 85.5537 364.93 85.3485C364.536 85.1335 364.224 84.8452 363.993 84.4836C363.772 84.1123 363.662 83.697 363.662 83.2377ZM368.362 83.6335C368.467 83.5162 368.554 83.3989 368.621 83.2817C368.689 83.1644 368.722 83.0569 368.722 82.9592V82.1823C368.492 82.0846 368.242 82.0113 367.972 81.9624C367.703 81.9038 367.449 81.8745 367.208 81.8745C366.709 81.8745 366.295 81.9868 365.968 82.2116C365.651 82.4266 365.493 82.7149 365.493 83.0764C365.493 83.2719 365.545 83.4576 365.651 83.6335C365.757 83.8094 365.911 83.9511 366.113 84.0585C366.314 84.166 366.555 84.2198 366.833 84.2198C367.122 84.2198 367.405 84.166 367.684 84.0585C367.963 83.9413 368.189 83.7996 368.362 83.6335Z" fill="#333333"/>
<path d="M371.998 81.6692C371.998 80.9266 372.142 80.2572 372.431 79.6611C372.719 79.0552 373.118 78.5764 373.627 78.2246C374.137 77.8728 374.718 77.6969 375.372 77.6969C375.929 77.6969 376.429 77.8386 376.871 78.1219C377.323 78.3956 377.674 78.7474 377.924 79.1773V74.8092H379.856V83.311C379.856 83.5162 379.89 83.6628 379.957 83.7507C380.024 83.8387 380.139 83.8924 380.303 83.912V85.5097C379.966 85.5781 379.692 85.6123 379.481 85.6123C379.135 85.6123 378.847 85.5244 378.616 85.3485C378.395 85.1726 378.27 84.9429 378.241 84.6595L378.212 84.1758C377.934 84.6546 377.554 85.0211 377.073 85.2752C376.602 85.5293 376.107 85.6563 375.588 85.6563C375.069 85.6563 374.589 85.5537 374.146 85.3485C373.714 85.1433 373.334 84.8599 373.007 84.4983C372.69 84.1367 372.44 83.7165 372.258 83.2377C372.085 82.7491 371.998 82.2263 371.998 81.6692ZM377.924 82.6953V80.863C377.828 80.5797 377.674 80.3256 377.463 80.1008C377.251 79.8761 377.016 79.7002 376.756 79.5731C376.497 79.4363 376.237 79.3679 375.978 79.3679C375.68 79.3679 375.41 79.4314 375.17 79.5585C374.93 79.6855 374.718 79.8565 374.536 80.0715C374.363 80.2865 374.228 80.5357 374.132 80.8191C374.046 81.1025 374.002 81.4005 374.002 81.7132C374.002 82.0259 374.05 82.324 374.146 82.6074C374.252 82.881 374.401 83.1204 374.593 83.3256C374.786 83.5308 375.007 83.6921 375.257 83.8094C375.516 83.9266 375.795 83.9853 376.093 83.9853C376.275 83.9853 376.458 83.9559 376.641 83.8973C376.833 83.8289 377.011 83.741 377.174 83.6335C377.347 83.5162 377.496 83.3794 377.621 83.223C377.756 83.0569 377.857 82.881 377.924 82.6953Z" fill="#333333"/>
<path d="M381.291 81.6692C381.291 80.9266 381.435 80.2572 381.723 79.6611C382.012 79.0552 382.411 78.5764 382.92 78.2246C383.43 77.8728 384.011 77.6969 384.665 77.6969C385.222 77.6969 385.722 77.8386 386.164 78.1219C386.616 78.3956 386.967 78.7474 387.217 79.1773V74.8092H389.149V83.311C389.149 83.5162 389.182 83.6628 389.25 83.7507C389.317 83.8387 389.432 83.8924 389.596 83.912V85.5097C389.259 85.5781 388.985 85.6123 388.774 85.6123C388.428 85.6123 388.139 85.5244 387.909 85.3485C387.688 85.1726 387.563 84.9429 387.534 84.6595L387.505 84.1758C387.226 84.6546 386.847 85.0211 386.366 85.2752C385.895 85.5293 385.4 85.6563 384.881 85.6563C384.362 85.6563 383.881 85.5537 383.439 85.3485C383.007 85.1433 382.627 84.8599 382.3 84.4983C381.983 84.1367 381.733 83.7165 381.55 83.2377C381.377 82.7491 381.291 82.2263 381.291 81.6692ZM387.217 82.6953V80.863C387.121 80.5797 386.967 80.3256 386.755 80.1008C386.544 79.8761 386.308 79.7002 386.049 79.5731C385.789 79.4363 385.53 79.3679 385.27 79.3679C384.972 79.3679 384.703 79.4314 384.463 79.5585C384.223 79.6855 384.011 79.8565 383.828 80.0715C383.655 80.2865 383.521 80.5357 383.425 80.8191C383.338 81.1025 383.295 81.4005 383.295 81.7132C383.295 82.0259 383.343 82.324 383.439 82.6074C383.545 82.881 383.694 83.1204 383.886 83.3256C384.078 83.5308 384.299 83.6921 384.549 83.8094C384.809 83.9266 385.088 83.9853 385.386 83.9853C385.568 83.9853 385.751 83.9559 385.933 83.8973C386.126 83.8289 386.303 83.741 386.467 83.6335C386.64 83.5162 386.789 83.3794 386.914 83.223C387.048 83.0569 387.149 82.881 387.217 82.6953Z" fill="#333333"/>
<path d="M391.045 85.5097V77.8288H392.977V85.5097H391.045ZM391.045 76.7587V74.8092H392.977V76.7587H391.045Z" fill="#333333"/>
<path d="M398.238 85.6563C397.623 85.6563 397.07 85.5537 396.58 85.3485C396.09 85.1335 395.671 84.8403 395.325 84.469C394.979 84.0879 394.71 83.6579 394.518 83.179C394.335 82.7002 394.244 82.1969 394.244 81.6692C394.244 80.9461 394.403 80.2865 394.72 79.6904C395.047 79.0845 395.508 78.6008 396.104 78.2392C396.7 77.8776 397.406 77.6969 398.223 77.6969C399.04 77.6969 399.742 77.8776 400.328 78.2392C400.915 78.6008 401.352 79.0747 401.64 79.6611L399.752 80.2474C399.588 79.964 399.372 79.749 399.103 79.6024C398.834 79.4461 398.536 79.3679 398.209 79.3679C397.844 79.3679 397.507 79.4656 397.2 79.6611C396.902 79.8467 396.666 80.1155 396.493 80.4673C396.32 80.8093 396.234 81.21 396.234 81.6692C396.234 82.1188 396.32 82.5194 396.493 82.8712C396.676 83.2133 396.916 83.4869 397.214 83.6921C397.512 83.8875 397.844 83.9853 398.209 83.9853C398.44 83.9853 398.656 83.9462 398.858 83.868C399.069 83.7898 399.257 83.6823 399.42 83.5455C399.583 83.4087 399.704 83.2523 399.78 83.0764L401.669 83.6628C401.496 84.0439 401.241 84.3859 400.905 84.6889C400.578 84.9918 400.189 85.2312 399.737 85.4071C399.295 85.5732 398.795 85.6563 398.238 85.6563Z" fill="#333333"/>
<path d="M407.385 85.1139C407.222 85.1823 407.025 85.2605 406.794 85.3485C406.563 85.4364 406.313 85.5048 406.044 85.5537C405.785 85.6123 405.52 85.6416 405.251 85.6416C404.896 85.6416 404.569 85.5781 404.271 85.4511C403.973 85.324 403.733 85.1237 403.55 84.8501C403.377 84.5667 403.291 84.2002 403.291 83.7507V79.3386H402.296V77.8288H403.291V75.3369H405.223V77.8288H406.808V79.3386H405.223V83.0911C405.232 83.355 405.304 83.5455 405.439 83.6628C405.573 83.78 405.742 83.8387 405.943 83.8387C406.145 83.8387 406.342 83.8045 406.535 83.7361C406.727 83.6677 406.881 83.609 406.996 83.5602L407.385 85.1139Z" fill="#333333"/>
<path d="M408.391 85.5097V77.8288H410.323V85.5097H408.391ZM408.391 76.7587V74.8092H410.323V76.7587H408.391Z" fill="#333333"/>
<path d="M414.099 85.5097L411.317 77.8288H413.321L415.224 83.7214L417.141 77.8288H418.972L416.204 85.5097H414.099Z" fill="#333333"/>
<path d="M423.243 85.6563C422.638 85.6563 422.09 85.5537 421.6 85.3485C421.109 85.1335 420.691 84.8452 420.345 84.4836C419.999 84.1123 419.73 83.6921 419.538 83.223C419.355 82.7442 419.264 82.2409 419.264 81.7132C419.264 80.9803 419.423 80.3109 419.74 79.705C420.067 79.0992 420.528 78.6154 421.124 78.2539C421.729 77.8825 422.441 77.6969 423.258 77.6969C424.084 77.6969 424.791 77.8825 425.377 78.2539C425.963 78.6154 426.41 79.0992 426.718 79.705C427.035 80.3011 427.194 80.9461 427.194 81.6399C427.194 81.7572 427.189 81.8794 427.179 82.0064C427.17 82.1237 427.16 82.2214 427.151 82.2996H421.311C421.35 82.6904 421.46 83.0325 421.643 83.3256C421.835 83.6188 422.075 83.8436 422.364 83.9999C422.662 84.1465 422.979 84.2198 423.315 84.2198C423.7 84.2198 424.06 84.127 424.397 83.9413C424.743 83.7458 424.978 83.4918 425.103 83.179L426.761 83.6481C426.579 84.039 426.314 84.3859 425.968 84.6889C425.632 84.9918 425.233 85.2312 424.772 85.4071C424.31 85.5732 423.801 85.6563 423.243 85.6563ZM421.268 81.0536H425.219C425.18 80.6627 425.07 80.3256 424.887 80.0422C424.714 79.749 424.483 79.5243 424.195 79.3679C423.907 79.2018 423.585 79.1187 423.229 79.1187C422.883 79.1187 422.566 79.2018 422.277 79.3679C421.999 79.5243 421.768 79.749 421.585 80.0422C421.412 80.3256 421.306 80.6627 421.268 81.0536Z" fill="#333333"/>
<defs>
<linearGradient id="paint0_linear_216_423" x1="14.5156" y1="-4.625" x2="163.516" y2="111.875" gradientUnits="userSpaceOnUse">
<stop stop-color="#00C667"/>
<stop offset="1" stop-color="#059D79"/>
</linearGradient>
<linearGradient id="paint1_linear_216_423" x1="14.5156" y1="-4.625" x2="163.516" y2="111.875" gradientUnits="userSpaceOnUse">
<stop stop-color="#00C667"/>
<stop offset="1" stop-color="#059D79"/>
</linearGradient>
<linearGradient id="paint2_linear_216_423" x1="14.5156" y1="-4.625" x2="163.516" y2="111.875" gradientUnits="userSpaceOnUse">
<stop stop-color="#00C667"/>
<stop offset="1" stop-color="#059D79"/>
</linearGradient>
<linearGradient id="paint3_linear_216_423" x1="14.5156" y1="-4.625" x2="163.516" y2="111.875" gradientUnits="userSpaceOnUse">
<stop stop-color="#00C667"/>
<stop offset="1" stop-color="#059D79"/>
</linearGradient>
</defs>
</svg>
